<svg xmlns="http://www.w3.org/2000/svg" width="800" height="600" viewBox="0 0 800 600">
  <!-- Background with gradient -->
  <defs>
    <linearGradient id="bg-gradient" x1="0%" y1="0%" x2="100%" y2="100%">
      <stop offset="0%" stop-color="#0f172a" />
      <stop offset="100%" stop-color="#1e293b" />
    </linearGradient>
    <linearGradient id="accent-gradient" x1="0%" y1="0%" x2="100%" y2="100%">
      <stop offset="0%" stop-color="#6366f1" />
      <stop offset="100%" stop-color="#4f46e5" />
    </linearGradient>
    <linearGradient id="highlight-gradient" x1="0%" y1="0%" x2="100%" y2="100%">
      <stop offset="0%" stop-color="#06b6d4" />
      <stop offset="100%" stop-color="#0ea5e9" />
    </linearGradient>
  </defs>
  
  <!-- Main background -->
  <rect width="800" height="600" fill="url(#bg-gradient)" />
  
  <!-- Abstract shapes -->
  <circle cx="650" cy="150" r="100" fill="url(#accent-gradient)" opacity="0.7" />
  <circle cx="150" cy="450" r="80" fill="url(#highlight-gradient)" opacity="0.6" />
  
  <!-- Digital elements -->
  <g transform="translate(400, 300)" opacity="0.9">
    <!-- Stylized computer/device -->
    <rect x="-120" y="-80" width="240" height="160" rx="10" fill="#1e293b" stroke="#6366f1" stroke-width="2" />
    <rect x="-110" y="-70" width="220" height="120" rx="5" fill="#0f172a" />
    
    <!-- Code elements -->
    <g fill="#f8fafc" opacity="0.8">
      <rect x="-90" y="-50" width="60" height="5" rx="2" />
      <rect x="-90" y="-35" width="120" height="5" rx="2" />
      <rect x="-90" y="-20" width="80" height="5" rx="2" />
      <rect x="-90" y="-5" width="100" height="5" rx="2" />
      <rect x="-90" y="10" width="70" height="5" rx="2" />
      <rect x="-90" y="25" width="110" height="5" rx="2" />
      <rect x="-90" y="40" width="50" height="5" rx="2" />
    </g>
    
    <!-- Accent elements -->
    <circle cx="-50" cy="-55" r="3" fill="#06b6d4" />
    <circle cx="-50" cy="10" r="3" fill="#6366f1" />
    <circle cx="-50" cy="40" r="3" fill="#06b6d4" />
  </g>
  
  <!-- Connected nodes representing digital network -->
  <g stroke="#6366f1" stroke-width="1.5" opacity="0.6">
    <line x1="200" y1="150" x2="300" y2="200" />
    <line x1="300" y1="200" x2="400" y2="150" />
    <line x1="400" y1="150" x2="500" y2="200" />
    <line x1="500" y1="200" x2="600" y2="150" />
    <line x1="300" y1="200" x2="350" y2="300" />
    <line x1="500" y1="200" x2="450" y2="300" />
    <line x1="350" y1="300" x2="450" y2="300" />
    <line x1="350" y1="300" x2="300" y2="400" />
    <line x1="450" y1="300" x2="500" y2="400" />
    <line x1="300" y1="400" x2="400" y2="450" />
    <line x1="500" y1="400" x2="400" y2="450" />
  </g>
  
  <g fill="#f8fafc">
    <circle cx="200" cy="150" r="5" />
    <circle cx="300" cy="200" r="5" />
    <circle cx="400" cy="150" r="5" />
    <circle cx="500" cy="200" r="5" />
    <circle cx="600" cy="150" r="5" />
    <circle cx="350" cy="300" r="5" />
    <circle cx="450" cy="300" r="5" />
    <circle cx="300" cy="400" r="5" />
    <circle cx="500" cy="400" r="5" />
    <circle cx="400" cy="450" r="5" />
  </g>
  
  <!-- Glowing accent nodes -->
  <g fill="#06b6d4">
    <circle cx="300" cy="200" r="8" opacity="0.8">
      <animate attributeName="opacity" values="0.8;0.4;0.8" dur="3s" repeatCount="indefinite" />
    </circle>
    <circle cx="450" cy="300" r="8" opacity="0.8">
      <animate attributeName="opacity" values="0.8;0.4;0.8" dur="4s" repeatCount="indefinite" />
    </circle>
    <circle cx="400" cy="450" r="8" opacity="0.8">
      <animate attributeName="opacity" values="0.8;0.4;0.8" dur="5s" repeatCount="indefinite" />
    </circle>
  </g>
</svg>