<svg xmlns="http://www.w3.org/2000/svg" width="800" height="600" viewBox="0 0 800 600">
  <!-- Background with gradient -->
  <defs>
    <linearGradient id="bg-gradient" x1="0%" y1="0%" x2="100%" y2="100%">
      <stop offset="0%" stop-color="#0056b3" />
      <stop offset="100%" stop-color="#00a0e3" />
    </linearGradient>
    <linearGradient id="accent-gradient" x1="0%" y1="0%" x2="100%" y2="100%">
      <stop offset="0%" stop-color="#ff6b00" />
      <stop offset="100%" stop-color="#ff9d00" />
    </linearGradient>
  </defs>
  
  <!-- Main background shape -->
  <rect x="0" y="0" width="800" height="600" fill="#ffffff" />
  
  <!-- Decorative elements -->
  <circle cx="650" cy="150" r="100" fill="url(#bg-gradient)" opacity="0.1" />
  <circle cx="100" cy="450" r="80" fill="url(#bg-gradient)" opacity="0.1" />
  
  <!-- Digital business illustration -->
  <!-- Computer/Device -->
  <rect x="200" y="200" width="300" height="200" rx="10" fill="#0056b3" />
  <rect x="220" y="220" width="260" height="160" rx="5" fill="#ffffff" />
  <rect x="240" y="240" width="220" height="120" fill="#f5f5f5" />
  
  <!-- Website elements on screen -->
  <rect x="260" y="260" width="180" height="20" rx="3" fill="#0056b3" opacity="0.7" />
  <rect x="260" y="290" width="140" height="10" rx="2" fill="#0056b3" opacity="0.5" />
  <rect x="260" y="310" width="160" height="10" rx="2" fill="#0056b3" opacity="0.5" />
  <rect x="260" y="330" width="120" height="10" rx="2" fill="#0056b3" opacity="0.5" />
  
  <!-- Mobile device -->
  <rect x="550" y="250" width="100" height="180" rx="10" fill="#0056b3" />
  <rect x="560" y="270" width="80" height="140" rx="5" fill="#ffffff" />
  
  <!-- App elements on mobile -->
  <rect x="570" y="280" width="60" height="10" rx="2" fill="#0056b3" opacity="0.7" />
  <rect x="570" y="300" width="40" height="40" rx="5" fill="url(#accent-gradient)" />
  <rect x="570" y="350" width="60" height="8" rx="2" fill="#0056b3" opacity="0.5" />
  <rect x="570" y="365" width="50" height="8" rx="2" fill="#0056b3" opacity="0.5" />
  <rect x="570" y="380" width="40" height="8" rx="2" fill="#0056b3" opacity="0.5" />
  
  <!-- Connecting lines representing digital connectivity -->
  <path d="M350 380 C 400 450, 500 400, 550 350" stroke="#0056b3" stroke-width="3" fill="none" stroke-dasharray="5,5" />
  
  <!-- Social media icons -->
  <circle cx="450" cy="450" r="15" fill="url(#bg-gradient)" />
  <circle cx="490" cy="450" r="15" fill="url(#bg-gradient)" />
  <circle cx="530" cy="450" r="15" fill="url(#bg-gradient)" />
  
  <!-- Abstract data visualization elements -->
  <rect x="150" y="450" width="40" height="60" rx="5" fill="url(#bg-gradient)" opacity="0.8" />
  <rect x="200" y="470" width="40" height="40" rx="5" fill="url(#bg-gradient)" opacity="0.6" />
  <rect x="250" y="430" width="40" height="80" rx="5" fill="url(#bg-gradient)" opacity="0.9" />
  <rect x="300" y="460" width="40" height="50" rx="5" fill="url(#bg-gradient)" opacity="0.7" />
  
  <!-- Accent elements -->
  <circle cx="650" cy="450" r="30" fill="url(#accent-gradient)" />
  <path d="M630 450 L 650 430 L 670 450 L 650 470 Z" fill="#ffffff" />
</svg>