<svg xmlns="http://www.w3.org/2000/svg" width="400" height="300" viewBox="0 0 400 300">
  <!-- Background with gradient -->
  <defs>
    <linearGradient id="bg-gradient" x1="0%" y1="0%" x2="100%" y2="100%">
      <stop offset="0%" stop-color="#1e293b" />
      <stop offset="100%" stop-color="#334155" />
    </linearGradient>
    <linearGradient id="accent-gradient" x1="0%" y1="0%" x2="100%" y2="100%">
      <stop offset="0%" stop-color="#06b6d4" />
      <stop offset="100%" stop-color="#0ea5e9" />
    </linearGradient>
  </defs>
  
  <!-- Main background -->
  <rect width="400" height="300" fill="url(#bg-gradient)" />
  
  <!-- SEO visualization -->
  <g transform="translate(200, 150)">
    <!-- Search bar -->
    <rect x="-100" y="-70" width="200" height="30" rx="15" fill="#f8fafc" />
    <circle cx="-85" cy="-55" r="8" fill="#475569" />
    <line x1="-81" y1="-51" x2="-75" y2="-45" stroke="#475569" stroke-width="2" />
    
    <!-- Search results -->
    <g>
      <!-- Result 1 (highlighted) -->
      <rect x="-100" y="-20" width="200" height="40" rx="5" fill="url(#accent-gradient)" />
      <rect x="-90" y="-15" width="120" height="10" rx="2" fill="#f8fafc" />
      <rect x="-90" y="0" width="180" height="5" rx="2" fill="#f8fafc" opacity="0.8" />
      <rect x="-90" y="10" width="160" height="5" rx="2" fill="#f8fafc" opacity="0.8" />
      
      <!-- Result 2 -->
      <rect x="-100" y="30" width="200" height="40" rx="5" fill="#0f172a" />
      <rect x="-90" y="35" width="120" height="10" rx="2" fill="#475569" />
      <rect x="-90" y="50" width="180" height="5" rx="2" fill="#475569" opacity="0.8" />
      <rect x="-90" y="60" width="160" height="5" rx="2" fill="#475569" opacity="0.8" />
    </g>
    
    <!-- Ranking indicators -->
    <g>
      <circle cx="-120" cy="-5" r="15" fill="#6366f1" opacity="0.9" />
      <text x="-120" y="-1" font-family="Arial, sans-serif" font-size="12" fill="#f8fafc" text-anchor="middle">#1</text>
      
      <circle cx="-120" cy="45" r="15" fill="#475569" opacity="0.7" />
      <text x="-120" y="49" font-family="Arial, sans-serif" font-size="12" fill="#f8fafc" text-anchor="middle">#2</text>
    </g>
  </g>
  
  <!-- Analytics graph -->
  <g transform="translate(320, 80)">
    <path d="M0,50 L15,40 L30,45 L45,30 L60,15" stroke="#06b6d4" stroke-width="3" fill="none" />
    <circle cx="0" cy="50" r="4" fill="#06b6d4" />
    <circle cx="15" cy="40" r="4" fill="#06b6d4" />
    <circle cx="30" cy="45" r="4" fill="#06b6d4" />
    <circle cx="45" cy="30" r="4" fill="#06b6d4" />
    <circle cx="60" cy="15" r="4" fill="#06b6d4" />
  </g>
  
  <!-- Keywords cloud -->
  <g transform="translate(80, 80)">
    <text x="0" y="0" font-family="Arial, sans-serif" font-size="16" fill="#6366f1">SEO</text>
    <text x="-20" y="20" font-family="Arial, sans-serif" font-size="12" fill="#f8fafc">keywords</text>
    <text x="30" y="10" font-family="Arial, sans-serif" font-size="14" fill="#06b6d4">ranking</text>
    <text x="-10" y="-15" font-family="Arial, sans-serif" font-size="10" fill="#f8fafc">optimization</text>
    <text x="20" y="-20" font-family="Arial, sans-serif" font-size="11" fill="#475569">search</text>
  </g>
  
  <!-- Project title -->
  <text x="200" y="275" font-family="Arial, sans-serif" font-size="14" fill="#f8fafc" text-anchor="middle">SEO Optimization</text>
</svg>